<?xml version="1.0" standalone="no"?>
<!DOCTYPE svg PUBLIC "-//W3C//DTD SVG 20010904//EN"
 "http://www.w3.org/TR/2001/REC-SVG-20010904/DTD/svg10.dtd">
<svg version="1.0" xmlns="http://www.w3.org/2000/svg"
 width="500.000000pt" height="500.000000pt" viewBox="0 0 500.000000 500.000000"
 preserveAspectRatio="xMidYMid meet">
<metadata>
Created by potrace 1.11, written by Peter Selinger 2001-2013
</metadata>
<g transform="translate(0.000000,500.000000) scale(0.100000,-0.100000)"
fill="#000000" stroke="none">
<path d="M1264 3977 c-20 -28 -48 -66 -61 -83 l-24 -32 153 -79 c158 -82 290
-163 391 -239 31 -24 61 -44 65 -44 6 1 112 151 121 172 10 27 -387 266 -571
342 l-36 16 -38 -53z"/>
<path d="M2858 3842 l-808 -2 0 -120 0 -120 68 0 69 0 12 -57 c46 -213 160
-587 248 -813 63 -162 219 -474 303 -607 38 -61 70 -116 70 -121 0 -14 -195
-199 -290 -276 -183 -147 -432 -294 -640 -376 -47 -18 -87 -35 -89 -36 -2 -2
10 -19 26 -37 16 -19 46 -62 67 -95 21 -34 41 -62 46 -62 19 0 256 111 348
163 217 123 371 237 568 422 l111 104 88 -97 c163 -180 337 -326 521 -437 93
-57 262 -145 277 -145 3 0 22 23 42 51 20 28 54 70 76 94 l39 43 -132 65
c-214 106 -388 231 -566 406 -54 53 -120 122 -146 153 l-47 57 79 113 c241
347 415 753 536 1258 45 187 86 419 75 426 -5 3 -39 15 -77 27 -67 22 -67 22
-874 19z m681 -329 c-50 -228 -120 -460 -194 -648 -72 -184 -233 -483 -332
-618 l-36 -49 -50 79 c-75 116 -208 380 -271 533 -84 209 -174 490 -224 708
l-19 82 572 0 573 0 -19 -87z"/>
<path d="M1078 3066 l-57 -83 140 -71 c153 -79 306 -171 402 -244 l62 -46 26
42 c15 23 41 67 58 98 l32 56 -48 34 c-102 73 -462 268 -538 292 -17 5 -30 -9
-77 -78z"/>
<path d="M1650 2214 c-135 -257 -324 -575 -476 -803 l-63 -94 92 -78 c71 -60
95 -75 104 -66 39 40 330 549 494 864 l84 162 -75 76 c-41 41 -78 75 -81 75
-4 0 -40 -61 -79 -136z"/>
</g>
</svg>
